<svg width="19" height="21" viewBox="0 0 19 21" fill="none" xmlns="http://www.w3.org/2000/svg">
<path d="M6.19995 0.400024C5.56343 0.400024 4.95298 0.652881 4.50289 1.10297C4.05281 1.55306 3.79995 2.1635 3.79995 2.80002V9.04842C4.19221 8.93739 4.59394 8.86307 4.99995 8.82642V2.80002C4.99995 2.48176 5.12638 2.17654 5.35142 1.9515C5.57647 1.72645 5.88169 1.60002 6.19995 1.60002H11V5.80002C11 6.27741 11.1896 6.73525 11.5272 7.07282C11.8647 7.41038 12.3226 7.60002 12.8 7.60002H17V17.2C17 17.5183 16.8735 17.8235 16.6485 18.0486C16.4234 18.2736 16.1182 18.4 15.8 18.4H11.48C11.2615 18.8275 10.9972 19.2298 10.6916 19.6H15.8C16.4365 19.6 17.0469 19.3472 17.497 18.8971C17.9471 18.447 18.2 17.8365 18.2 17.2V6.89682C18.1995 6.4196 18.0096 5.96207 17.672 5.62482L12.9752 0.926824C12.6377 0.589602 12.1802 0.400126 11.7032 0.400024H6.19995ZM16.7516 6.40002H12.8C12.6408 6.40002 12.4882 6.33681 12.3757 6.22429C12.2632 6.11177 12.2 5.95915 12.2 5.80002V1.84842L16.7516 6.40002ZM11 15.4C11 16.8322 10.431 18.2057 9.41833 19.2184C8.40563 20.2311 7.03212 20.8 5.59995 20.8C4.16778 20.8 2.79427 20.2311 1.78157 19.2184C0.768878 18.2057 0.199951 16.8322 0.199951 15.4C0.199951 13.9679 0.768878 12.5943 1.78157 11.5816C2.79427 10.569 4.16778 10 5.59995 10C7.03212 10 8.40563 10.569 9.41833 11.5816C10.431 12.5943 11 13.9679 11 15.4ZM6.19995 13C6.19995 12.8409 6.13674 12.6883 6.02422 12.5758C5.91169 12.4632 5.75908 12.4 5.59995 12.4C5.44082 12.4 5.28821 12.4632 5.17569 12.5758C5.06317 12.6883 4.99995 12.8409 4.99995 13V14.8H3.19995C3.04082 14.8 2.88821 14.8632 2.77569 14.9758C2.66317 15.0883 2.59995 15.2409 2.59995 15.4C2.59995 15.5592 2.66317 15.7118 2.77569 15.8243C2.88821 15.9368 3.04082 16 3.19995 16H4.99995V17.8C4.99995 17.9592 5.06317 18.1118 5.17569 18.2243C5.28821 18.3368 5.44082 18.4 5.59995 18.4C5.75908 18.4 5.91169 18.3368 6.02422 18.2243C6.13674 18.1118 6.19995 17.9592 6.19995 17.8V16H7.99995C8.15908 16 8.31169 15.9368 8.42422 15.8243C8.53674 15.7118 8.59995 15.5592 8.59995 15.4C8.59995 15.2409 8.53674 15.0883 8.42422 14.9758C8.31169 14.8632 8.15908 14.8 7.99995 14.8H6.19995V13Z" fill="black"/>
</svg>
