<svg width="38" height="38" viewBox="0 0 38 38" fill="none" xmlns="http://www.w3.org/2000/svg">
<path d="M0.0090332 19.2844C0.0090332 8.94811 8.38829 0.568848 18.7246 0.568848C29.061 0.568848 37.4402 8.94811 37.4402 19.2844C37.4402 29.6208 29.061 38 18.7246 38C8.38829 38 0.0090332 29.6208 0.0090332 19.2844Z" fill="#E5E5E5"/>
<path d="M23.7934 13.0459C23.7934 15.8453 21.524 18.1147 18.7246 18.1147C15.9251 18.1147 13.6558 15.8453 13.6558 13.0459C13.6558 10.2464 15.9251 7.97705 18.7246 7.97705C21.524 7.97705 23.7934 10.2464 23.7934 13.0459Z" stroke="#55BB25" stroke-width="1.5" stroke-linecap="round" stroke-linejoin="round"/>
<path d="M19.1144 30.5919H10.8476C9.00807 30.5919 7.63535 28.9703 8.57264 27.3875C9.93204 25.0917 12.8593 22.4038 19.1144 22.4038" stroke="#55BB25" stroke-width="1.5" stroke-linecap="round" stroke-linejoin="round"/>
<path d="M23.0137 28.2521L24.9632 30.5916L30.032 23.5732" stroke="#55BB25" stroke-width="1.5" stroke-linecap="round" stroke-linejoin="round"/>
</svg>
