<svg width="15" height="16" viewBox="0 0 15 16" fill="none" xmlns="http://www.w3.org/2000/svg">
<path d="M2.00003 9.50004V6.05504C2.00203 6.03677 2.00303 6.01841 2.00303 6.00004C2.0028 5.2272 2.18172 4.46483 2.52575 3.77278C2.86978 3.08074 3.36954 2.47787 3.98581 2.0115C4.60207 1.54514 5.31806 1.22798 6.07754 1.08493C6.83703 0.941875 7.61933 0.976828 8.36303 1.18704C8.42673 1.20671 8.49372 1.21344 8.56006 1.20683C8.6264 1.20023 8.69075 1.18043 8.74933 1.14859C8.8079 1.11675 8.85951 1.07352 8.90113 1.02144C8.94275 0.969361 8.97354 0.909484 8.99168 0.845332C9.00982 0.78118 9.01494 0.714048 9.00675 0.647885C8.99857 0.581722 8.97723 0.517865 8.944 0.46007C8.91077 0.402275 8.86632 0.351708 8.81326 0.311346C8.7602 0.270983 8.6996 0.241639 8.63503 0.225039C7.74756 -0.0256923 6.81424 -0.0684764 5.90755 0.10001C5.00086 0.268496 4.14522 0.643718 3.40707 1.19653C2.66892 1.74935 2.06813 2.46488 1.65137 3.28754C1.23461 4.11021 1.0131 5.01787 1.00403 5.94004C1.00159 5.95928 1.00025 5.97865 1.00003 5.99804V9.40004L0.0770332 11.616C0.0138486 11.768 -0.0108699 11.9331 0.00506946 12.0969C0.0210088 12.2607 0.0771135 12.418 0.168409 12.5549C0.259704 12.6918 0.383368 12.804 0.528435 12.8817C0.673502 12.9593 0.83549 13 1.00003 13H4.50003C4.50003 13.6631 4.76343 14.299 5.23227 14.7678C5.70111 15.2366 6.33699 15.5 7.00003 15.5C7.66307 15.5 8.29896 15.2366 8.7678 14.7678C9.23664 14.299 9.50003 13.6631 9.50003 13H13C13.1646 13 13.3266 12.9593 13.4716 12.8817C13.6167 12.804 13.7404 12.6918 13.8317 12.5549C13.923 12.418 13.9791 12.2607 13.995 12.0969C14.0109 11.9331 13.9862 11.768 13.923 11.616L13 9.40004V7.99804C13 7.86543 12.9474 7.73825 12.8536 7.64449C12.7598 7.55072 12.6326 7.49804 12.5 7.49804C12.3674 7.49804 12.2402 7.55072 12.1465 7.64449C12.0527 7.73825 12 7.86543 12 7.99804V9.50004C12.0002 9.56598 12.0135 9.63124 12.039 9.69204L13 12H1.00003L1.96203 9.69204C1.98722 9.63117 2.00014 9.56592 2.00003 9.50004ZM5.50003 13H8.50003C8.50003 13.3979 8.342 13.7794 8.06069 14.0607C7.77939 14.342 7.39786 14.5 7.00003 14.5C6.60221 14.5 6.22068 14.342 5.93937 14.0607C5.65807 13.7794 5.50003 13.3979 5.50003 13ZM11 3.95408e-05H14.5C14.5844 2.08798e-05 14.6673 0.0213332 14.7412 0.061994C14.8151 0.102655 14.8775 0.161343 14.9226 0.232598C14.9677 0.303853 14.9941 0.38536 14.9992 0.469536C15.0044 0.553712 14.9881 0.637821 14.952 0.71404L14.909 0.787039L11.96 5.00004H14.5C14.625 4.99981 14.7455 5.04637 14.8378 5.13055C14.9302 5.21473 14.9876 5.33043 14.9989 5.45486C15.0102 5.5793 14.9745 5.70345 14.8988 5.80287C14.8231 5.90229 14.713 5.96978 14.59 5.99204L14.5 6.00004H11C10.9157 6.00006 10.8327 5.97875 10.7589 5.93809C10.685 5.89742 10.6226 5.83874 10.5775 5.76748C10.5324 5.69623 10.506 5.61472 10.5009 5.53054C10.4957 5.44637 10.5119 5.36226 10.548 5.28604L10.59 5.21304L13.54 1.00004H11C10.8751 1.00027 10.7546 0.953711 10.6623 0.869531C10.5699 0.785352 10.5124 0.669653 10.5012 0.545218C10.4899 0.420783 10.5256 0.29663 10.6013 0.197208C10.6769 0.0977858 10.7871 0.0302997 10.91 0.00803944L11 3.95408e-05ZM6.50003 4.00004H9.00003C9.08816 3.99991 9.17475 4.02307 9.25104 4.06719C9.32733 4.1113 9.39061 4.17479 9.43446 4.25123C9.47832 4.32766 9.50119 4.41434 9.50076 4.50246C9.50033 4.59058 9.47662 4.67703 9.43203 4.75304L9.38403 4.82004L7.57003 7.00004H9.00003C9.12498 6.99981 9.24548 7.04637 9.33782 7.13055C9.43015 7.21473 9.48762 7.33043 9.49891 7.45486C9.5102 7.5793 9.47449 7.70345 9.39881 7.80287C9.32314 7.90229 9.21298 7.96978 9.09003 7.99204L9.00003 8.00004H6.50003C6.41191 8.00017 6.32531 7.97701 6.24902 7.93289C6.17273 7.88878 6.10946 7.82529 6.0656 7.74885C6.02175 7.67241 5.99888 7.58574 5.99931 7.49762C5.99973 7.4095 6.02344 7.32305 6.06803 7.24704L6.11603 7.18004L7.93303 5.00004H6.50103C6.37609 5.00027 6.25558 4.95371 6.16325 4.86953C6.07092 4.78535 6.01345 4.66965 6.00216 4.54522C5.99087 4.42078 6.02658 4.29663 6.10225 4.19721C6.17793 4.09779 6.28809 4.0303 6.41103 4.00804L6.50103 4.00004H6.50003Z" fill="black"/>
</svg>
