<svg width="23" height="17" viewBox="0 0 23 17" fill="none" xmlns="http://www.w3.org/2000/svg">
<path d="M17.7617 0.174345L0.833532 2.72179C0.73863 2.73612 0.649858 2.77746 0.577815 2.84088C0.505773 2.9043 0.453505 2.98711 0.427253 3.07942C0.401 3.17174 0.401873 3.26967 0.429767 3.3615C0.45766 3.45334 0.511396 3.5352 0.584558 3.59732L6.44841 8.58526L9.0727 15.814C9.10556 15.904 9.1636 15.9827 9.23992 16.0407C9.31624 16.0987 9.40761 16.1335 9.50317 16.141C9.59872 16.1486 9.69442 16.1285 9.77887 16.0831C9.86332 16.0378 9.93297 15.9692 9.97951 15.8854L13.3847 9.73784C13.1756 9.36645 13.0106 8.97189 12.8931 8.5622L9.6378 14.44L7.44638 8.4058C7.47388 8.39279 7.50023 8.37814 7.52651 8.35988L13.2754 4.36612L13.3448 4.3082C13.433 4.21977 13.485 4.1015 13.4904 3.97667C13.4958 3.85184 13.4543 3.7295 13.3741 3.63375C13.2938 3.538 13.1806 3.47577 13.0567 3.45931C12.9329 3.44286 12.8073 3.47337 12.7049 3.54485L6.95597 7.53861L6.90569 7.57841L6.86162 7.62364L2.06936 3.54724L16.598 1.36145L18.1691 1.09916L18.2734 0.911026C18.3187 0.829365 18.3401 0.736674 18.3354 0.643447C18.3307 0.550219 18.2999 0.460178 18.2467 0.383515C18.1934 0.306851 18.1198 0.246627 18.034 0.20966C17.9483 0.172693 17.854 0.160461 17.7617 0.174345ZM21.877 4.47871C22.5579 5.45887 22.8216 6.66939 22.61 7.84396C22.3984 9.01852 21.7289 10.0609 20.7487 10.7418C19.7685 11.4228 18.558 11.6864 17.3834 11.4748C16.2089 11.2632 15.1665 10.5937 14.4856 9.61355C13.8046 8.63338 13.541 7.42287 13.7526 6.2483C13.9642 5.07373 14.6337 4.03133 15.6139 3.35041C16.594 2.66949 17.8045 2.40582 18.9791 2.61742C20.1537 2.82902 21.1961 3.49854 21.877 4.47871ZM16.7549 4.99295C16.646 5.06861 16.5716 5.18443 16.5481 5.31494C16.5246 5.44545 16.5539 5.57995 16.6296 5.68885L17.7706 7.3314C17.8463 7.4403 17.9621 7.5147 18.0926 7.53821C18.2231 7.56172 18.3576 7.53242 18.4665 7.45676L19.6984 6.60096C19.8074 6.5253 19.8817 6.40948 19.9053 6.27897C19.9288 6.14846 19.8995 6.01396 19.8238 5.90505C19.7482 5.79614 19.6323 5.72175 19.5018 5.69824C19.3713 5.67473 19.2368 5.70403 19.1279 5.77969L18.3066 6.35022L17.4508 5.11832C17.3752 5.00941 17.2594 4.93502 17.1288 4.91151C16.9983 4.888 16.8638 4.91729 16.7549 4.99295Z" fill="black"/>
</svg>
