<svg width="17" height="16" viewBox="0 0 17 16" fill="none" xmlns="http://www.w3.org/2000/svg">
<path d="M15.875 0.5H0.875L0.25 1.125V14.875L0.875 15.5H15.875L16.5 14.875V1.125L15.875 0.5ZM1.5 1.75H15.25V3H1.5V1.75ZM10.25 6.75H6.5V4.25H10.25V6.75ZM10.25 8V10.5H6.5V8H10.25ZM1.5 4.25H5.25V6.75H1.5V4.25ZM1.5 8H5.25V10.5H1.5V8ZM1.5 14.25V11.75H5.25V14.25H1.5ZM6.5 14.25V11.75H10.25V14.25H6.5ZM15.25 14.25H11.5V11.75H15.25V14.25ZM15.25 10.5H11.5V8H15.25V10.5ZM11.5 6.75V4.25H15.25V6.75H11.5Z" fill="black"/>
</svg>
