<svg width="31" height="25" viewBox="0 0 31 25" fill="none" xmlns="http://www.w3.org/2000/svg">
<path d="M5.02273 0.18182H25.8864C27.1693 0.181736 28.4036 0.672585 29.3362 1.55368C30.2687 2.43477 30.8287 3.6393 30.9014 4.92018L30.9091 5.20455V19.8864C30.9092 21.1693 30.4183 22.4036 29.5372 23.3362C28.6561 24.2687 27.4516 24.8287 26.1707 24.9014L25.8864 24.9091H5.02273C3.73979 24.9092 2.50545 24.4183 1.57292 23.5372C0.640385 22.6561 0.0803616 21.4516 0.00772746 20.1707L1.07798e-08 19.8864V5.20455C-8.39904e-05 3.92161 0.490765 2.68727 1.37186 1.75474C2.25295 0.822205 3.45748 0.262182 4.73836 0.189547L5.02273 0.18182H25.8864H5.02273ZM28.5909 8.48555L15.9955 15.1155C15.8532 15.1907 15.6969 15.2354 15.5365 15.2468C15.3761 15.2583 15.215 15.2362 15.0635 15.182L14.9152 15.1171L2.31818 8.48709V19.8864C2.31821 20.5651 2.57345 21.219 3.03323 21.7183C3.49302 22.2176 4.12374 22.5258 4.80018 22.5816L5.02273 22.5909H25.8864C26.5654 22.5909 27.2195 22.3354 27.7188 21.8753C28.2182 21.4152 28.5262 20.7841 28.5816 20.1074L28.5909 19.8864V8.48555ZM25.8864 2.5H5.02273C4.34398 2.50003 3.69005 2.75527 3.19076 3.21505C2.69146 3.67484 2.38331 4.30556 2.32745 4.982L2.31818 5.20455V5.86755L15.4545 12.7804L28.5909 5.866V5.20455C28.5909 4.52555 28.3354 3.87142 27.8753 3.37209C27.4152 2.87276 26.7841 2.56476 26.1074 2.50927L25.8864 2.5Z" fill="black"/>
</svg>
