<svg width="21" height="20" viewBox="0 0 21 20" fill="none" xmlns="http://www.w3.org/2000/svg">
<path d="M13.0138 13.3592C11.4842 14.5556 9.54478 15.1332 7.59381 14.9734C5.64285 14.8135 3.82845 13.9283 2.52325 12.4996C1.21805 11.0709 0.521121 9.20713 0.575601 7.29104C0.630081 5.37496 1.43183 3.55203 2.81619 2.19663C4.20056 0.841226 6.06244 0.0562476 8.01947 0.00290726C9.97649 -0.0504331 11.8801 0.631913 13.3393 1.90981C14.7986 3.1877 15.7027 4.96415 15.8659 6.87429C16.0292 8.78444 15.4393 10.6833 14.2173 12.1809L20.7504 18.5757C20.9102 18.7321 21 18.9444 21 19.1656C21 19.3869 20.9102 19.5992 20.7504 19.7556C20.5906 19.9121 20.3738 20 20.1478 20C19.9218 20 19.705 19.9121 19.5452 19.7556L13.0155 13.3592H13.0138ZM14.19 7.49938C14.19 6.73336 14.0359 5.97485 13.7365 5.26714C13.4371 4.55943 12.9983 3.91639 12.445 3.37474C11.8918 2.83308 11.235 2.40341 10.5122 2.11027C9.78937 1.81713 9.01464 1.66625 8.23226 1.66625C7.44987 1.66625 6.67515 1.81713 5.95232 2.11027C5.22949 2.40341 4.57271 2.83308 4.01948 3.37474C3.46625 3.91639 3.0274 4.55943 2.72799 5.26714C2.42859 5.97485 2.27449 6.73336 2.27449 7.49938C2.27449 9.04642 2.90218 10.5301 4.01948 11.624C5.13678 12.718 6.65216 13.3325 8.23226 13.3325C9.81236 13.3325 11.3277 12.718 12.445 11.624C13.5623 10.5301 14.19 9.04642 14.19 7.49938Z" fill="black"/>
</svg>
