<svg width="20" height="20" viewBox="0 0 20 20" fill="none" xmlns="http://www.w3.org/2000/svg">
<path d="M10 6C11.0609 6 12.0783 6.42143 12.8284 7.17157C13.5786 7.92172 14 8.93913 14 10C14 11.0609 13.5786 12.0783 12.8284 12.8284C12.0783 13.5786 11.0609 14 10 14C8.93915 14 7.92173 13.5786 7.17159 12.8284C6.42144 12.0783 6.00001 11.0609 6.00001 10C6.00001 8.93913 6.42144 7.92172 7.17159 7.17157C7.92173 6.42143 8.93915 6 10 6ZM10 8C9.46958 8 8.96087 8.21071 8.5858 8.58579C8.21073 8.96086 8.00001 9.46957 8.00001 10C8.00001 10.5304 8.21073 11.0391 8.5858 11.4142C8.96087 11.7893 9.46958 12 10 12C10.5304 12 11.0392 11.7893 11.4142 11.4142C11.7893 11.0391 12 10.5304 12 10C12 9.46957 11.7893 8.96086 11.4142 8.58579C11.0392 8.21071 10.5304 8 10 8ZM8.00001 20C7.75001 20 7.54001 19.82 7.50001 19.58L7.13001 16.93C6.50001 16.68 5.96001 16.34 5.44001 15.94L2.95001 16.95C2.73001 17.03 2.46001 16.95 2.34001 16.73L0.340015 13.27C0.27881 13.167 0.257233 13.0452 0.279319 12.9274C0.301405 12.8096 0.365641 12.7039 0.460015 12.63L2.57001 10.97L2.50001 10L2.57001 9L0.460015 7.37C0.365641 7.29613 0.301405 7.19042 0.279319 7.07263C0.257233 6.95484 0.27881 6.83304 0.340015 6.73L2.34001 3.27C2.46001 3.05 2.73001 2.96 2.95001 3.05L5.44001 4.05C5.96001 3.66 6.50001 3.32 7.13001 3.07L7.50001 0.42C7.54001 0.18 7.75001 0 8.00001 0H12C12.25 0 12.46 0.18 12.5 0.42L12.87 3.07C13.5 3.32 14.04 3.66 14.56 4.05L17.05 3.05C17.27 2.96 17.54 3.05 17.66 3.27L19.66 6.73C19.79 6.95 19.73 7.22 19.54 7.37L17.43 9L17.5 10L17.43 11L19.54 12.63C19.73 12.78 19.79 13.05 19.66 13.27L17.66 16.73C17.54 16.95 17.27 17.04 17.05 16.95L14.56 15.95C14.04 16.34 13.5 16.68 12.87 16.93L12.5 19.58C12.46 19.82 12.25 20 12 20H8.00001ZM9.25001 2L8.88001 4.61C7.68001 4.86 6.62001 5.5 5.85001 6.39L3.44001 5.35L2.69001 6.65L4.80001 8.2C4.40001 9.36667 4.40001 10.6333 4.80001 11.8L2.68001 13.36L3.43001 14.66L5.86001 13.62C6.63001 14.5 7.68001 15.14 8.87001 15.38L9.24001 18H10.76L11.13 15.39C12.32 15.14 13.37 14.5 14.14 13.62L16.57 14.66L17.32 13.36L15.2 11.81C15.6 10.64 15.6 9.37 15.2 8.2L17.31 6.65L16.56 5.35L14.15 6.39C13.3642 5.48032 12.2983 4.85767 11.12 4.62L10.75 2H9.25001Z" fill="black"/>
</svg>
