<svg width="75" height="57" viewBox="0 0 75 57" fill="none" xmlns="http://www.w3.org/2000/svg">
<path d="M0 10.2273C0 4.57891 4.57891 0 10.2273 0H64.7727C70.4211 0 75 4.57891 75 10.2273V46.0227C75 51.6711 70.4211 56.25 64.7727 56.25H10.2273C4.57891 56.25 0 51.6711 0 46.0227V10.2273Z" fill="#DFDFDF"/>
<path d="M54.9081 7.67046H27.0551C26.2472 7.67046 25.4723 7.96624 24.901 8.49275C24.3297 9.01926 24.0087 9.73335 24.0087 10.4779V15.6918H20.0919C19.2839 15.6918 18.509 15.9876 17.9377 16.5141C17.3664 17.0406 17.0454 17.7547 17.0454 18.4993V37.7507C17.0454 38.4953 17.3664 39.2094 17.9377 39.7359C18.509 40.2624 19.2839 40.5582 20.0919 40.5582H24.0087V45.7721C24.0087 46.5167 24.3297 47.2307 24.901 47.7572C25.4723 48.2838 26.2472 48.5795 27.0551 48.5795H54.9081C55.7161 48.5795 56.4909 48.2838 57.0623 47.7572C57.6336 47.2307 57.9545 46.5167 57.9545 45.7721V10.4779C57.9545 9.73335 57.6336 9.01926 57.0623 8.49275C56.4909 7.96624 55.7161 7.67046 54.9081 7.67046ZM45.7688 22.9111H55.3433V33.3389H45.7688V22.9111ZM55.3433 10.4779V20.5047H45.7688V18.4993C45.7688 17.7547 45.4479 17.0406 44.8766 16.5141C44.3053 15.9876 43.5304 15.6918 42.7224 15.6918H42.2872V10.0769H54.9081C55.0235 10.0769 55.1342 10.1191 55.2158 10.1943C55.2975 10.2696 55.3433 10.3716 55.3433 10.4779ZM26.6199 10.4779C26.6199 10.3716 26.6658 10.2696 26.7474 10.1943C26.829 10.1191 26.9397 10.0769 27.0551 10.0769H39.676V15.6918H26.6199V10.4779ZM19.6567 37.7507V18.4993C19.6567 18.393 19.7025 18.2909 19.7841 18.2157C19.8657 18.1405 19.9764 18.0983 20.0919 18.0983H42.7224C42.8378 18.0983 42.9485 18.1405 43.0302 18.2157C43.1118 18.2909 43.1576 18.393 43.1576 18.4993V37.7507C43.1576 37.857 43.1118 37.9591 43.0302 38.0343C42.9485 38.1095 42.8378 38.1517 42.7224 38.1517H20.0919C19.9764 38.1517 19.8657 38.1095 19.7841 38.0343C19.7025 37.9591 19.6567 37.857 19.6567 37.7507ZM26.6199 45.7721V40.5582H39.676V46.1731H27.0551C26.9397 46.1731 26.829 46.1309 26.7474 46.0557C26.6658 45.9804 26.6199 45.8784 26.6199 45.7721ZM54.9081 46.1731H42.2872V40.5582H42.7224C43.5304 40.5582 44.3053 40.2624 44.8766 39.7359C45.4479 39.2094 45.7688 38.4953 45.7688 37.7507V35.7453H55.3433V45.7721C55.3433 45.8784 55.2975 45.9804 55.2158 46.0557C55.1342 46.1309 55.0235 46.1731 54.9081 46.1731ZM26.4458 32.2159L29.7751 28.125L26.4458 24.0341C26.343 23.9077 26.2681 23.7638 26.2256 23.6108C26.183 23.4577 26.1736 23.2984 26.1978 23.142C26.2221 22.9856 26.2795 22.8351 26.3669 22.6991C26.4542 22.5632 26.5698 22.4444 26.7069 22.3496C26.8441 22.2548 27.0002 22.1858 27.1663 22.1466C27.3324 22.1074 27.5052 22.0987 27.675 22.1211C27.8447 22.1434 28.008 22.1963 28.1555 22.2768C28.303 22.3573 28.4319 22.4638 28.5348 22.5902L31.4071 26.1197L34.2795 22.5902C34.4872 22.335 34.7965 22.1662 35.1393 22.1211C35.4821 22.0759 35.8303 22.1581 36.1073 22.3496C36.3843 22.5411 36.5675 22.8261 36.6165 23.142C36.6654 23.4579 36.5762 23.7788 36.3685 24.0341L33.0392 28.125L36.3685 32.2159C36.5762 32.4712 36.6654 32.7921 36.6165 33.108C36.5675 33.4239 36.3843 33.7089 36.1073 33.9004C35.8303 34.0919 35.4821 34.1741 35.1393 34.129C34.7965 34.0838 34.4872 33.915 34.2795 33.6598L31.4071 30.1303L28.5348 33.6598C28.4319 33.7862 28.303 33.8927 28.1555 33.9732C28.008 34.0537 27.8447 34.1066 27.675 34.129C27.5052 34.1513 27.3324 34.1426 27.1663 34.1034C27.0002 34.0642 26.8441 33.9952 26.7069 33.9004C26.5698 33.8056 26.4542 33.6868 26.3669 33.5509C26.2795 33.4149 26.2221 33.2644 26.1978 33.108C26.1736 32.9516 26.183 32.7923 26.2256 32.6392C26.2681 32.4862 26.343 32.3423 26.4458 32.2159Z" fill="black"/>
</svg>
