<svg width="41" height="42" viewBox="0 0 41 42" fill="none" xmlns="http://www.w3.org/2000/svg">
<path d="M37.9081 0.420456H10.0551C9.24715 0.420456 8.47228 0.716244 7.90097 1.24275C7.32965 1.76926 7.00869 2.48335 7.00869 3.22794V8.44185H3.09186C2.2839 8.44185 1.50903 8.73763 0.937717 9.26414C0.366402 9.79064 0.0454407 10.5047 0.0454407 11.2493V30.5007C0.0454407 31.2453 0.366402 31.9594 0.937717 32.4859C1.50903 33.0124 2.2839 33.3082 3.09186 33.3082H7.00869V38.5221C7.00869 39.2667 7.32965 39.9807 7.90097 40.5072C8.47228 41.0338 9.24715 41.3295 10.0551 41.3295H37.9081C38.7161 41.3295 39.4909 41.0338 40.0623 40.5072C40.6336 39.9807 40.9545 39.2667 40.9545 38.5221V3.22794C40.9545 2.48335 40.6336 1.76926 40.0623 1.24275C39.4909 0.716244 38.7161 0.420456 37.9081 0.420456ZM28.7688 15.6611H38.3433V26.0889H28.7688V15.6611ZM38.3433 3.22794V13.2547H28.7688V11.2493C28.7688 10.5047 28.4479 9.79064 27.8766 9.26414C27.3053 8.73763 26.5304 8.44185 25.7224 8.44185H25.2872V2.82687H37.9081C38.0235 2.82687 38.1342 2.86913 38.2158 2.94434C38.2975 3.01956 38.3433 3.12157 38.3433 3.22794ZM9.61991 3.22794C9.61991 3.12157 9.66576 3.01956 9.74738 2.94434C9.82899 2.86913 9.93969 2.82687 10.0551 2.82687H22.676V8.44185H9.61991V3.22794ZM2.65666 30.5007V11.2493C2.65666 11.143 2.70251 11.0409 2.78413 10.9657C2.86574 10.8905 2.97644 10.8483 3.09186 10.8483H25.7224C25.8378 10.8483 25.9485 10.8905 26.0302 10.9657C26.1118 11.0409 26.1576 11.143 26.1576 11.2493V30.5007C26.1576 30.607 26.1118 30.7091 26.0302 30.7843C25.9485 30.8595 25.8378 30.9017 25.7224 30.9017H3.09186C2.97644 30.9017 2.86574 30.8595 2.78413 30.7843C2.70251 30.7091 2.65666 30.607 2.65666 30.5007ZM9.61991 38.5221V33.3082H22.676V38.9231H10.0551C9.93969 38.9231 9.82899 38.8809 9.74738 38.8057C9.66576 38.7304 9.61991 38.6284 9.61991 38.5221ZM37.9081 38.9231H25.2872V33.3082H25.7224C26.5304 33.3082 27.3053 33.0124 27.8766 32.4859C28.4479 31.9594 28.7688 31.2453 28.7688 30.5007V28.4953H38.3433V38.5221C38.3433 38.6284 38.2975 38.7304 38.2158 38.8057C38.1342 38.8809 38.0235 38.9231 37.9081 38.9231ZM9.44583 24.9659L12.7751 20.875L9.44583 16.7841C9.34295 16.6577 9.26811 16.5138 9.22555 16.3608C9.183 16.2077 9.17358 16.0484 9.19783 15.892C9.22207 15.7356 9.27952 15.5851 9.36687 15.4491C9.45423 15.3132 9.56979 15.1944 9.70695 15.0996C9.84411 15.0048 10.0002 14.9358 10.1663 14.8966C10.3324 14.8574 10.5052 14.8487 10.675 14.8711C10.8447 14.8934 11.008 14.9463 11.1555 15.0268C11.303 15.1073 11.4319 15.2138 11.5348 15.3402L14.4071 18.8697L17.2795 15.3402C17.4872 15.085 17.7965 14.9162 18.1393 14.8711C18.4821 14.8259 18.8303 14.9081 19.1073 15.0996C19.3843 15.2911 19.5675 15.5761 19.6165 15.892C19.6654 16.2079 19.5762 16.5288 19.3685 16.7841L16.0392 20.875L19.3685 24.9659C19.5762 25.2212 19.6654 25.5421 19.6165 25.858C19.5675 26.1739 19.3843 26.4589 19.1073 26.6504C18.8303 26.8419 18.4821 26.9241 18.1393 26.879C17.7965 26.8338 17.4872 26.665 17.2795 26.4098L14.4071 22.8803L11.5348 26.4098C11.4319 26.5362 11.303 26.6427 11.1555 26.7232C11.008 26.8037 10.8447 26.8566 10.675 26.879C10.5052 26.9013 10.3324 26.8926 10.1663 26.8534C10.0002 26.8142 9.84411 26.7452 9.70695 26.6504C9.56979 26.5556 9.45423 26.4368 9.36687 26.3009C9.27952 26.1649 9.22207 26.0144 9.19783 25.858C9.17358 25.7016 9.183 25.5423 9.22555 25.3892C9.26811 25.2362 9.34295 25.0923 9.44583 24.9659Z" fill="black"/>
</svg>
