<svg width="75" height="57" viewBox="0 0 75 57" fill="none" xmlns="http://www.w3.org/2000/svg">
<path d="M0 9.68C0 4.33389 4.33388 0 9.68 0H65.32C70.6661 0 75 4.33388 75 9.68V46.57C75 51.9161 70.6661 56.25 65.32 56.25H9.68C4.33388 56.25 0 51.9161 0 46.57V9.68Z" fill="#DFDFDF"/>
<path d="M45.9297 20.0117C45.9297 23.9942 42.7012 27.2227 38.7188 27.2227C34.7363 27.2227 31.5078 23.9942 31.5078 20.0117C31.5078 16.0292 34.7363 12.8008 38.7188 12.8008C42.7012 12.8008 45.9297 16.0292 45.9297 20.0117Z" stroke="black" stroke-width="2.42045" stroke-linecap="round" stroke-linejoin="round"/>
<path d="M36.9355 43.4492H25.1751C22.5581 43.4492 20.6053 41.1424 21.9387 38.8906C23.8726 35.6246 28.0369 31.8008 36.9355 31.8008" stroke="black" stroke-width="2.42045" stroke-linecap="round" stroke-linejoin="round"/>
<path d="M48.5078 32.8008V42.7852" stroke="black" stroke-width="2.42045" stroke-linecap="round" stroke-linejoin="round"/>
<path d="M53.4922 37.8555L43.5078 37.8555" stroke="black" stroke-width="2.42045" stroke-linecap="round" stroke-linejoin="round"/>
</svg>
