<svg width="24" height="20" viewBox="0 0 24 20" fill="none" xmlns="http://www.w3.org/2000/svg">
<path d="M20.316 3.66679L19.7857 4.19712L20.316 3.66679ZM20.316 16.5432L19.7857 16.0129L20.316 16.5432ZM7.9699 16.0129C7.67701 15.72 7.20213 15.72 6.90924 16.0129C6.61635 16.3058 6.61635 16.7806 6.90924 17.0735L7.9699 16.0129ZM6.90924 3.13646C6.61635 3.42936 6.61635 3.90423 6.90924 4.19712C7.20213 4.49002 7.67701 4.49002 7.9699 4.19712L6.90924 3.13646ZM11.5 10.855C11.9142 10.855 12.25 10.5192 12.25 10.105C12.25 9.69079 11.9142 9.355 11.5 9.355V10.855ZM1 10.105L0.46967 9.57467C0.176777 9.86756 0.176777 10.3424 0.46967 10.6353L1 10.105ZM3.46967 13.6353C3.76256 13.9282 4.23744 13.9282 4.53033 13.6353C4.82322 13.3424 4.82322 12.8676 4.53033 12.5747L3.46967 13.6353ZM4.53033 7.63533C4.82322 7.34244 4.82322 6.86756 4.53033 6.57467C4.23744 6.28178 3.76256 6.28178 3.46967 6.57467L4.53033 7.63533ZM19.7857 4.19712C23.0485 7.45995 23.0485 12.75 19.7857 16.0129L20.8463 17.0735C24.6949 13.2249 24.6949 6.98508 20.8463 3.13646L19.7857 4.19712ZM19.7857 16.0129C16.5228 19.2757 11.2327 19.2757 7.9699 16.0129L6.90924 17.0735C10.7579 20.9222 16.9977 20.9222 20.8463 17.0735L19.7857 16.0129ZM7.9699 4.19712C11.2327 0.934293 16.5228 0.934292 19.7857 4.19712L20.8463 3.13646C16.9977 -0.712154 10.7579 -0.712154 6.90924 3.13646L7.9699 4.19712ZM11.5 9.355H1V10.855H11.5V9.355ZM0.46967 10.6353L3.46967 13.6353L4.53033 12.5747L1.53033 9.57467L0.46967 10.6353ZM1.53033 10.6353L4.53033 7.63533L3.46967 6.57467L0.46967 9.57467L1.53033 10.6353Z" fill="#2A526F"/>
</svg>
