<svg width="157" height="166" viewBox="0 0 157 166" fill="none" xmlns="http://www.w3.org/2000/svg">
<g clip-path="url(#clip0)">
<path d="M114.314 122.527C102.16 122.635 90.0049 123.931 78.0654 126.309C73.0099 127.281 75.1612 135.06 80.2166 134.088C91.5108 131.819 102.912 130.739 114.422 130.631C119.477 130.522 119.477 122.527 114.314 122.527Z" fill="#E29DB0"/>
<path d="M68.9224 123.391C58.8114 122.743 48.9156 123.824 39.2349 126.633C34.3946 128.037 35.7929 135.925 40.7408 134.52C49.7761 131.927 58.919 130.847 68.277 131.387C73.44 131.711 74.0854 123.715 68.9224 123.391Z" fill="#D7E075"/>
<path d="M31.1679 122.203C22.025 121.987 12.9897 122.959 4.06196 124.904C-0.993514 125.985 1.15775 133.764 6.21322 132.684C14.4956 130.847 22.6704 130.091 31.1679 130.199C36.3309 130.307 36.3309 122.311 31.1679 122.203Z" fill="#DD8956"/>
<path d="M155.834 6.48264C153.467 4.10558 150.778 2.1607 147.551 0.972169C144.002 -0.324413 140.56 -0.324413 137.225 1.72851C134.751 3.13314 132.815 5.18606 131.202 7.56313C128.835 10.8046 127.114 14.4782 125.609 18.2599C123.995 22.3658 122.597 26.5797 121.629 30.9016C120.768 34.3592 120.123 37.8167 119.477 41.3823C119.047 43.8674 118.832 46.3526 118.402 48.9457C117.541 55.1045 116.466 61.2632 115.067 67.314C114.099 71.7439 112.916 76.0659 111.41 80.3878C110.55 82.7649 109.044 84.6017 106.785 85.8983C104.741 87.0868 102.482 87.6271 100.116 88.0593C96.5665 88.5995 93.0169 88.9237 89.3597 88.3834C87.6387 88.0593 85.8101 87.7351 84.4118 86.5466C83.7664 86.1144 83.2286 85.4661 82.7984 84.7098C82.2606 83.7373 82.4757 83.0891 83.3362 82.4408C83.9816 82.0086 84.627 81.6844 85.2723 81.3603C87.6387 80.3878 90.2202 79.8476 92.8018 79.5234C95.5984 79.1993 98.5026 79.0912 101.299 78.8752C101.299 78.6591 101.299 78.551 101.299 78.3349C101.299 78.1188 101.299 78.0108 101.299 77.7947C100.654 77.7947 100.008 77.7947 99.3631 77.7947C96.7816 77.9027 94.3076 78.0108 91.7261 78.1188L91.6186 78.2269C91.6186 78.3349 91.511 78.3349 91.4034 78.443C91.2959 78.551 91.1883 78.551 91.0808 78.443C91.0808 78.443 90.9732 78.3349 90.8656 78.2269C90.4354 78.2269 90.1127 78.3349 89.6824 78.3349C86.8858 78.7671 83.9816 79.3074 81.5076 80.82C79.679 81.9005 78.4958 83.4132 78.4958 85.5742C78.4958 91.0846 80.8622 95.2985 85.595 98.2158C89.5749 100.593 93.8774 101.133 98.395 100.161C103.881 99.0802 107.968 95.7307 110.872 91.0846C113.239 87.411 114.637 83.3051 115.498 79.0912C116.681 72.7164 117.864 66.2335 119.047 59.8586C120.015 55.1045 120.983 50.2423 122.059 45.4882C123.35 40.0857 124.856 34.7914 126.684 29.497C128.298 24.8509 130.019 20.2048 132.277 15.7748C133.998 12.3173 135.935 8.96776 138.946 6.3746C140.883 4.64582 143.141 3.56533 145.723 3.78143C149.057 4.10558 152.069 5.07801 154.651 7.45508C154.866 7.67118 155.081 7.77923 155.188 7.99532C155.511 7.77923 155.834 7.56313 156.157 7.34703V6.91484C156.157 6.69874 155.941 6.59069 155.834 6.48264ZM81.8303 86.9788C82.6908 88.9237 83.3362 90.4363 84.1967 92.2732C85.3799 94.6502 87.5312 96.271 89.6824 97.6756C90.0051 97.8917 90.2202 98.1078 90.5429 98.3239C84.3043 97.8917 81.0774 92.3812 81.8303 86.9788Z" fill="#DD8956"/>
<path d="M74.0857 85.1421C75.3764 83.5214 76.4521 81.7926 76.9899 79.7397C77.6353 77.2545 76.1294 74.8775 73.5479 74.7694C71.6117 74.6614 69.7831 75.0936 68.1697 76.2821C65.373 78.227 63.652 80.9282 62.2537 83.8455C60.6403 86.9789 59.8873 90.5445 59.1344 94.0021C59.0268 94.4343 58.9192 94.7584 58.8117 95.1906C57.4134 95.7308 56.4453 96.7033 55.9075 98.216C56.9831 98.1079 57.9512 97.9999 58.8117 97.8918C59.1344 98.6481 59.3495 99.2964 59.6722 99.8367C61.0705 102.538 63.2218 103.943 66.2335 103.726C69.3529 103.51 71.8268 101.89 73.763 99.4045C74.5159 98.324 75.1613 97.2435 75.0537 95.8389C74.9462 95.0825 74.6235 94.5423 73.8705 94.1101C73.4403 94.9745 73.01 95.7308 72.5798 96.5952C71.5041 98.4321 70.4285 100.269 68.8151 101.674C67.6319 102.646 64.9428 102.862 63.8672 101.241C63.0066 99.8367 62.684 98.4321 62.5764 96.8113C63.0066 96.4872 63.3293 96.163 63.652 95.8389C67.4167 92.5974 71.0739 89.1399 74.0857 85.1421ZM62.8991 93.6779C62.8991 93.4618 62.8991 93.2457 62.8991 93.0296C63.5445 89.8962 64.0823 86.7628 65.4806 83.9535C66.6638 81.5765 68.1697 79.4155 70.1058 77.6867C71.6117 76.3901 73.4403 76.066 74.9462 76.9304C75.6991 77.3626 76.0218 78.0109 75.9142 78.8753C75.6991 80.1718 75.0537 81.1443 74.3008 82.2248C72.1495 85.1421 69.6756 87.7352 67.0941 90.2204C66.0184 91.3008 64.8352 92.2733 63.7596 93.3538C63.5445 93.5699 63.3293 93.6779 63.1142 93.894C63.0066 93.786 63.0066 93.786 62.8991 93.6779Z" fill="#DD8956"/>
<path d="M21.5949 83.3055C23.9613 80.6043 26.2202 77.9031 28.5865 75.0938C28.3714 74.2294 28.1563 73.365 27.9412 72.3926C27.8336 72.3926 27.726 72.3926 27.726 72.3926C24.8218 75.0938 22.1328 78.0111 19.7664 81.2526C17.6151 79.4157 15.5714 77.5789 12.8823 76.4984C12.4521 76.9306 12.1294 77.3628 11.5916 78.0111C14.4958 79.1996 16.9697 80.7123 18.7983 83.0894C18.6907 83.3055 18.5832 83.4135 18.4756 83.6296C16.647 86.3309 14.926 89.0321 13.0974 91.7333C11.2689 94.4345 10.6235 97.4599 11.2689 100.701C11.6991 102.862 12.8823 104.483 15.1411 104.807C18.368 105.239 21.2722 104.483 23.7462 102.322C25.6823 100.593 26.4353 98.2162 26.6504 95.623C26.8655 91.9494 25.5748 88.816 23.5311 85.7906C22.8857 84.8182 22.2403 84.1699 21.5949 83.3055ZM22.7781 100.917C21.3798 101.998 19.7664 102.754 18.0454 103.186C16.3243 103.619 14.7109 102.754 14.2806 100.917C13.7428 98.6484 14.1731 96.3794 15.0336 94.2184C16.3243 91.085 18.0454 88.1677 19.8739 85.3584C19.9815 85.2504 20.0891 85.0343 20.3042 84.8182C20.9496 85.6826 21.5949 86.4389 22.0252 87.1952C23.5311 89.4643 24.7143 91.8413 25.037 94.4345C25.5748 97.1357 24.8218 99.2967 22.7781 100.917Z" fill="#DD8956"/>
<path d="M30.6298 84.1697C30.1996 83.7375 29.8769 83.4134 29.5542 83.0892C30.092 82.1168 30.9525 81.5765 31.9206 81.1443C35.1475 79.9558 38.1593 80.28 40.9559 82.3329C42.8921 83.7375 44.5055 85.5743 45.6887 87.7353C46.7643 89.7882 47.7324 92.3814 47.6249 94.7585C47.5173 96.3792 46.7643 98.108 44.9358 97.9999C42.0316 97.7838 39.45 96.3792 36.8685 95.2987C35.5778 94.7585 34.3946 94.9746 33.4265 95.7309C32.6736 96.1631 32.1357 96.7033 31.4904 97.2436C30.9525 97.7838 30.4147 98.216 29.8769 98.8643C29.7693 98.9723 29.7693 98.9723 29.6618 98.9723C29.4467 98.9723 29.3391 98.8643 29.2315 98.7563C28.9088 98.6482 29.2315 97.9999 29.3391 97.7838C29.6618 96.8114 30.1996 95.947 30.845 95.0826C31.4904 94.3263 32.1357 93.5699 32.9962 93.0297C34.287 92.1653 35.6853 92.2733 37.0836 92.5975C38.8047 92.9216 40.4181 93.678 42.1391 93.678C43.2148 93.678 43.8601 92.9216 43.7526 91.8411C43.645 90.1124 42.8921 88.5997 42.0316 87.1951C41.3862 86.1146 40.7408 85.1421 39.8803 84.2778C37.729 82.2248 35.1475 82.2248 32.566 83.3053C31.813 83.5214 31.2752 83.8456 30.6298 84.1697Z" fill="#DD8956"/>
<path d="M51.1748 101.133C50.3143 99.9448 49.7764 98.9723 49.884 97.6758C50.2067 95.0826 50.4218 92.4894 50.5294 89.8963C50.6369 88.4916 50.4218 87.087 50.4218 85.6824C50.5294 84.1697 50.7445 82.657 51.0672 81.1443C51.0672 80.8202 51.2823 80.6041 51.3899 80.2799C51.7126 79.6317 52.1428 79.4156 52.8958 79.5236C54.6168 79.8477 55.3697 80.9282 55.047 82.657C53.8638 88.4916 52.6806 94.3262 51.4974 100.161C51.3899 100.377 51.2823 100.593 51.1748 101.133Z" fill="#DD8956"/>
<path d="M99.0402 37.9253C101.191 39.8702 102.697 42.0311 102.912 44.9485C103.128 47.4336 102.59 49.7026 101.622 51.9716C100.976 53.5923 100.331 55.105 99.7931 56.7257C99.1478 58.5626 98.8251 60.3994 99.1478 62.3443C99.2553 62.7765 99.3629 63.2087 99.4705 63.8569C98.6099 62.6684 98.0721 61.4799 97.7494 60.1833C97.2116 57.8062 97.4267 55.4292 98.1797 53.0521C98.6099 51.5394 99.2553 50.1348 99.6856 48.6221C100.116 47.3255 100.439 46.0289 100.654 44.7324C101.084 42.2472 100.439 39.9782 99.0402 37.9253Z" fill="#242A2B"/>
<path d="M101.406 78.7671V77.6866C101.406 77.4705 101.406 77.2544 101.406 77.1464C101.406 77.0383 101.406 77.0383 101.406 76.9303C101.514 74.2291 102.482 71.852 103.343 69.3669C103.988 67.53 104.526 65.6932 104.633 63.7483C104.741 61.5874 104.203 59.7505 103.02 57.9137L103.128 57.8057C104.849 59.4264 106.139 61.2632 106.677 63.5322C107.107 65.6932 106.892 67.7461 106.139 69.7991C105.386 71.96 104.526 74.121 103.773 76.282C103.558 76.8222 103.45 77.3625 103.343 77.7947C103.343 78.0108 103.235 78.3349 103.235 78.551C102.697 79.9556 102.805 81.3603 103.128 82.7649C103.235 83.1971 103.343 83.5212 103.558 83.8454C102.482 82.3327 101.729 80.6039 101.406 78.7671Z" fill="#242A2B"/>
<path d="M91.726 78.0111C91.5108 78.2272 91.2957 78.6594 90.973 78.1192C91.4033 75.6341 90.6503 73.365 89.7898 71.096C88.9293 68.827 87.9613 66.558 87.4235 64.289C86.3478 60.0751 87.8537 56.5095 91.0806 53.7002C90.8655 54.0243 90.7579 54.3485 90.5428 54.6726C89.252 57.0497 89.0369 59.5348 89.6823 62.128C90.2201 64.1809 91.0806 66.2338 91.726 68.1787C92.4789 70.4477 93.0167 72.7167 92.5865 75.2019C92.3713 76.1743 92.0486 77.0387 91.726 78.0111Z" fill="#242A2B"/>
<path d="M94.3076 112.046C94.4152 110.209 95.4908 108.697 94.8454 106.86C94.4152 107.076 93.8774 107.292 93.4471 107.4C91.8337 108.048 90.758 107.832 89.4673 106.536C91.2959 106.644 92.8017 105.671 94.3076 105.131C96.1362 104.483 97.7497 104.591 99.2555 105.887C99.6858 106.319 100.224 106.644 100.761 106.968L100.654 107.184C99.2555 106.86 97.8572 106.644 96.4589 106.319C96.5665 109.021 95.9211 110.641 94.3076 112.046Z" fill="#242A2B"/>
<path d="M57.0906 75.2018C57.0906 76.6064 56.015 77.5788 54.6166 77.5788C53.2183 77.5788 52.2502 76.6064 52.2502 75.2018C52.2502 73.7971 53.3259 72.8247 54.7242 72.8247C56.1225 72.8247 57.1982 73.7971 57.0906 75.2018Z" fill="#242A2B"/>
<path d="M55.1545 67.9627C55.5848 68.0707 55.7999 68.1788 56.015 68.2868C56.9831 68.611 57.6285 68.3949 57.9512 67.4224C58.2739 66.45 58.489 65.4776 58.7041 64.5051C58.8117 64.0729 58.8117 63.6407 58.9193 63.1005C58.7041 63.2085 58.489 63.2085 58.1663 63.3166C58.0587 63.1005 57.9512 62.8844 57.8436 62.4522C58.2739 62.2361 58.8117 62.02 59.3495 61.6959C59.4571 61.4798 59.5646 61.0476 59.6722 60.6154C59.7798 60.6154 59.7798 60.6154 59.8873 60.5073C59.9949 60.8315 60.21 61.1556 60.3176 61.4798C61.1781 61.4798 62.2537 60.8315 63.0067 61.6959C63.4369 62.1281 63.652 62.7763 63.7596 63.4246C63.9747 64.8293 63.3293 65.9098 62.1461 66.1259C62.3613 65.5856 62.5764 65.1534 62.7915 64.8293C63.0067 64.3971 63.2218 63.9649 63.3293 63.5327C63.4369 62.6683 63.0067 62.2361 62.1461 62.2361C61.931 62.2361 61.7159 62.2361 61.5008 62.2361C61.0705 62.3442 60.6403 62.4522 60.1024 62.5603C59.8873 63.8568 59.5646 65.0454 59.3495 66.342C59.2419 66.8822 59.1344 67.5305 58.8117 68.0707C57.9512 69.4754 56.2302 69.5834 55.1545 67.9627Z" fill="#242A2B"/>
<path d="M50.9596 69.0427C49.7764 69.1508 48.9158 68.9347 48.4856 67.9623C48.7007 68.0703 48.9158 68.1783 49.2385 68.2864C49.9915 68.6105 50.852 68.3944 51.1747 67.5301C51.7125 66.1254 52.0352 64.7208 52.1427 63.2081C51.9276 63.3162 51.7125 63.3162 51.4974 63.4242C50.9596 62.6679 51.1747 62.3437 52.573 61.9115C52.7881 61.5874 52.8957 61.1552 53.1108 60.8311C53.2184 60.8311 53.2184 60.8311 53.3259 60.8311C53.4335 61.1552 53.5411 61.3713 53.6486 61.6954C54.5091 61.5874 55.4772 61.0472 56.3377 61.9115C56.768 62.3437 56.9831 62.992 57.0907 63.5323C57.3058 64.9369 56.6604 66.1254 55.4772 66.3415C55.5848 65.9093 55.7999 65.5852 55.9075 65.261C56.1226 64.7208 56.4453 64.1806 56.5528 63.6403C56.768 62.884 56.3377 62.3437 55.5848 62.2357C54.9394 62.2357 54.1864 62.3437 53.4335 62.4518C53.2184 63.4242 53.1108 64.2886 52.8957 65.153C52.6806 65.9093 52.573 66.7737 52.3579 67.5301C51.7125 68.0703 51.1747 68.6105 50.9596 69.0427Z" fill="#242A2B"/>
<path d="M31.7058 104.807C33.2117 104.915 34.3949 104.375 35.5781 103.835C36.7613 103.294 38.052 102.754 39.4504 103.078C40.8487 103.402 41.8168 104.375 43 105.239V105.455C42.8924 105.455 42.6773 105.455 42.5697 105.455C42.0319 105.347 41.4941 105.239 41.0638 105.023C39.6655 104.483 38.2672 104.591 36.8688 105.239C36.331 105.563 35.7932 105.78 35.1478 105.888C33.7495 106.32 32.6739 105.996 31.7058 104.807Z" fill="#242A2B"/>
<path d="M76.1294 62.2361C76.7748 61.4798 77.4202 60.7234 78.1732 59.9671C78.0656 59.6429 78.0656 59.4268 77.958 58.9946C77.0975 59.9671 76.3446 60.7234 75.6992 61.5878C74.9462 61.1556 74.3009 60.7234 73.6555 60.1832C73.4404 60.3993 73.3328 60.6154 73.2252 60.7234C73.8706 61.1556 74.516 61.4798 75.2689 61.9119C74.7311 62.5602 74.3009 63.2085 73.9782 63.7488C73.4404 64.6132 73.0101 65.5856 73.1177 66.6661C73.2252 67.7466 73.9782 68.3949 74.9463 68.3949C75.6992 68.3949 76.3446 68.0707 76.8824 67.5305C77.8505 66.45 77.958 64.9373 77.0975 63.5327C76.7748 63.2085 76.4521 62.7763 76.1294 62.2361ZM77.0975 66.1259C76.99 67.2063 76.1294 67.9627 75.1614 68.0707C74.4084 68.1788 73.9782 67.7466 73.8706 66.9902C73.8706 65.8017 74.3009 64.7212 74.9463 63.7488C75.1614 63.4246 75.3765 63.1005 75.6992 62.6683C76.7748 63.6407 77.2051 64.8293 77.0975 66.1259Z" fill="#242A2B"/>
<path d="M71.2889 66.3416C70.3209 66.7738 70.1057 66.6657 69.783 65.9094C69.4604 65.045 69.0301 64.2887 68.4923 63.4243C67.8469 65.045 67.2015 66.4496 66.5562 67.9623C66.6637 65.6933 68.062 63.7484 67.6318 61.4794C68.062 61.2633 68.2772 61.2633 68.4923 61.0472C69.2452 62.4518 69.8906 63.8565 70.536 65.2611C70.6436 65.2611 70.6436 65.2611 70.7511 65.2611C71.0738 64.2887 71.3965 63.3162 71.7192 62.2357C71.9343 61.5875 72.0419 60.9392 72.1494 60.1828C72.1494 59.9667 72.3646 59.7506 72.4721 59.6426C72.4721 62.0196 71.9343 64.1806 71.2889 66.3416Z" fill="#242A2B"/>
<path d="M64.8351 67.314C64.8351 67.0979 64.7275 66.8818 64.7275 66.5576C64.7275 65.3691 64.7275 64.0725 64.7275 62.884C64.7275 62.4518 64.8351 62.0196 64.9427 61.6954C65.1578 61.1552 65.3729 61.0472 66.1258 61.3713C66.0183 63.3162 65.4805 65.261 65.0502 67.314C65.0502 67.314 64.9427 67.314 64.8351 67.314Z" fill="#242A2B"/>
<path d="M103.343 78.6592C103.343 78.4431 103.45 78.1189 103.45 77.9028C105.279 78.1189 107.215 78.335 109.044 78.5511V78.6592H103.343Z" fill="#D3864A"/>
<path d="M99.0403 37.9249V38.033C98.9328 37.9249 98.8252 37.8169 98.8252 37.8169H98.9328C98.9328 37.8169 99.0403 37.8169 99.0403 37.9249Z" fill="#D3864A"/>
<path d="M103.02 57.914C103.02 57.8059 102.913 57.8059 102.913 57.6979C102.913 57.6979 102.913 57.6979 102.913 57.5898C103.02 57.5898 103.02 57.6979 103.128 57.6979C103.128 57.8059 103.128 57.8059 103.02 57.914Z" fill="#D3864A"/>
<path d="M32.4588 120.582C31.4907 122.203 30.4151 123.716 29.447 125.336C29.447 125.444 29.2319 125.336 29.1243 125.336C28.8016 124.796 28.9092 124.364 29.1243 123.932C29.9848 122.095 30.8453 120.15 31.7058 118.313C31.921 117.773 32.2436 117.449 32.889 117.557C33.4268 117.557 33.642 117.989 33.8571 118.421C34.1798 119.394 34.61 120.474 35.1478 121.555C35.2554 121.231 35.4705 121.015 35.5781 120.69C36.1159 119.394 36.6537 118.097 37.2991 116.801C37.8369 115.72 38.1596 115.504 39.5579 115.936C39.5579 116.26 39.5579 116.693 39.4504 116.909C38.2672 119.07 37.084 121.231 35.9008 123.392C35.6857 123.824 35.1478 123.932 34.7176 123.932C34.1798 123.932 33.9647 123.608 33.7495 123.175C33.3193 122.203 32.889 121.447 32.4588 120.582Z" fill="black"/>
<path d="M66.9864 120.474C65.8032 122.095 65.1578 124.039 63.7595 125.444C63.1141 125.12 63.2217 124.58 63.4368 124.256C63.5444 123.823 63.7595 123.499 63.9746 123.067C64.62 121.554 65.2654 120.042 66.0183 118.529C66.2335 118.205 66.341 117.773 66.7713 117.557C67.6318 117.232 68.062 117.881 68.3847 118.637C68.7074 119.609 68.9225 120.582 69.4604 121.446C69.5679 121.23 69.7831 121.014 69.8906 120.798C70.536 119.393 71.0738 117.989 71.7192 116.584C71.9343 116.152 72.1494 115.72 72.5797 115.504C72.9024 115.396 73.3326 115.396 73.6553 115.612C74.1931 115.828 73.978 116.476 73.7629 116.8C72.5797 118.961 71.5041 121.122 70.3209 123.175C69.7831 124.039 68.7074 123.931 68.1696 123.067C67.9545 122.635 67.7394 122.203 67.6318 121.77C67.4167 121.446 67.2015 121.014 66.9864 120.474Z" fill="black"/>
<path d="M80.647 128.686C80.7545 128.47 80.7545 128.253 80.8621 128.037C81.7226 126.417 82.6907 124.796 83.5512 123.175C83.9814 122.311 84.8419 121.879 85.7024 121.554C86.4554 121.23 87.3159 120.798 88.0688 120.474C88.4991 120.258 88.8218 119.934 88.8218 119.285C88.1764 118.745 87.3159 118.853 86.6705 119.069C85.81 119.285 84.9495 119.718 84.089 120.15C83.2285 120.474 82.6907 120.366 82.1529 119.61C82.1529 119.177 82.4755 118.853 82.7982 118.637C84.4117 117.773 86.0251 117.341 87.8537 117.665C88.4991 117.773 89.1445 117.989 89.6823 118.313C90.7579 119.069 90.8655 120.258 90.005 121.23C89.5747 121.663 88.9293 122.095 88.3915 122.419C87.7461 122.743 87.2083 123.067 86.4554 123.175C85.0571 123.499 84.3041 124.58 83.7663 125.768C83.4436 126.525 83.0134 127.281 82.5831 127.929C81.9377 128.578 81.5075 128.902 80.647 128.686Z" fill="black"/>
<path d="M55.4772 121.987C56.9831 122.419 58.489 122.527 59.8873 122.203C60.7478 121.987 61.5008 121.555 61.7159 120.69C61.6083 119.934 61.1781 119.502 60.3176 119.286C59.5646 119.502 58.8117 119.826 58.0587 120.15C57.0907 120.474 56.5529 120.258 55.9075 119.502C55.9075 118.962 56.3377 118.745 56.768 118.529C57.3058 118.313 57.9512 118.097 58.5966 118.097C59.5646 117.989 60.21 117.557 60.6403 116.693C60.8554 116.368 61.0705 116.044 61.2856 115.72C62.1461 114.532 62.3613 115.72 62.0386 116.693C61.8235 117.233 61.6083 117.665 61.3932 118.205C61.931 118.637 62.4688 118.962 62.8991 119.394C64.0823 120.474 63.9747 121.987 62.684 122.851C62.1461 123.283 61.3932 123.5 60.7478 123.608C59.2419 124.04 57.7361 124.04 56.2302 123.5C55.9075 123.392 55.6924 123.283 55.3697 123.067C55.047 122.851 55.047 122.419 55.4772 121.987Z" fill="black"/>
<path d="M104.311 120.258C103.988 119.934 103.558 119.718 103.558 119.178C103.558 118.421 104.741 118.313 105.279 118.097C107.107 117.557 108.936 117.233 110.872 117.665C112.27 117.989 113.131 119.178 112.701 120.582C112.378 121.771 111.518 122.743 110.442 123.5C109.797 123.932 108.828 123.608 108.291 123.068C108.291 123.068 108.183 123.068 108.183 122.96C108.183 122.96 108.183 122.851 108.291 122.851C108.828 122.311 109.474 121.879 110.012 121.339C110.442 120.907 110.98 120.366 111.087 119.826C111.41 118.638 109.474 118.746 108.721 118.962C107.968 119.07 107.215 119.286 106.462 119.502C106.57 119.61 106.57 119.826 106.57 119.934C106.57 120.366 106.247 120.69 106.032 121.015C105.709 121.663 105.279 122.203 104.849 122.743C104.526 123.176 104.203 123.5 103.773 123.824C103.665 123.932 103.45 124.04 103.343 124.04C103.128 124.04 102.912 123.824 102.805 123.608C102.805 123.392 102.912 123.176 103.02 122.96C103.45 121.987 103.881 121.123 104.311 120.258Z" fill="black"/>
<path d="M23.4232 119.394C23.3157 119.394 23.2081 119.502 23.2081 119.61V119.718C23.2081 120.15 23.1005 120.474 22.8854 120.798C22.6703 121.122 22.4552 121.555 22.24 121.879C21.9173 122.419 20.7341 124.256 19.8736 123.932C19.7661 123.932 19.3358 123.715 19.4434 123.607C19.9812 122.527 20.519 121.446 21.0568 120.366C21.0568 120.258 20.9493 120.258 20.9493 120.15C20.6266 119.826 20.1963 119.61 20.3039 119.069C20.4115 118.529 20.9493 118.529 21.272 118.421C22.8854 117.881 24.6064 117.449 26.3274 117.557C27.0804 117.557 27.8333 117.665 28.4787 118.097C29.2316 118.637 29.5543 119.394 29.3392 120.258C29.1241 121.663 28.156 122.743 26.9728 123.499C26.3274 123.932 25.6821 123.824 25.0367 123.391C24.714 122.851 25.0367 122.527 25.4669 122.311C26.435 121.771 27.2955 121.014 27.6182 119.934C27.7257 119.61 27.5106 119.285 27.2955 119.069C27.0804 118.961 26.8652 118.853 26.5426 118.853C25.8972 118.853 25.3594 118.961 24.714 119.069C24.3913 119.177 24.1762 119.177 23.8535 119.285C23.8535 119.285 23.6384 119.394 23.4232 119.394Z" fill="black"/>
<path d="M12.0217 119.609C12.0217 119.393 11.9141 119.177 11.9141 118.853C12.4519 117.989 13.3124 117.773 14.1729 117.557C15.4637 117.34 16.6469 117.34 17.7225 118.205C19.1208 119.177 19.4435 120.474 18.583 121.987C17.3998 124.148 14.3881 124.688 12.667 123.823C11.1612 123.067 10.946 121.338 11.699 120.15C11.8065 119.934 11.9141 119.826 12.0217 119.609ZM13.0973 119.826C12.3444 121.338 12.667 122.095 13.8502 122.419C15.5713 122.851 17.5074 121.122 17.2923 119.393C16.862 118.961 16.4318 118.637 15.7864 118.853C14.8183 119.177 13.9578 119.609 13.0973 119.826Z" fill="black"/>
<path d="M5.35284 123.175C5.35284 123.067 5.4604 122.959 5.56797 122.851C5.99822 122.419 6.6436 122.095 7.07385 121.663C7.61167 121.23 8.14948 120.798 8.6873 120.258C9.00999 119.934 9.22511 119.61 9.11755 119.177C8.90242 118.421 7.71923 118.637 7.18141 118.853C5.78309 119.286 4.49233 119.826 3.09401 120.258C2.66376 120.366 2.12594 120.474 1.69569 120.474C1.48056 120.474 1.05031 120.15 1.05031 119.934C0.942748 119.718 1.15787 119.394 1.26544 119.069C1.373 118.853 1.69569 118.745 1.91082 118.637C3.63183 117.881 5.35284 117.449 7.18141 117.341C8.25705 117.233 9.33268 117.449 10.0856 118.313C10.5159 118.745 10.6234 119.286 10.5159 119.934C10.4083 120.798 9.87049 121.446 9.22511 121.987C8.47217 122.635 7.71923 123.283 6.96629 123.932C6.6436 124.148 6.32091 124.256 5.89066 124.04C5.56797 123.716 5.35284 123.499 5.35284 123.175Z" fill="black"/>
<path d="M93.1245 125.985C93.6623 124.796 94.3077 123.499 94.9531 122.203C95.5984 120.798 96.2438 119.502 96.9968 118.097C97.5346 117.125 98.2875 116.908 99.2556 117.341C99.148 117.665 99.148 118.097 98.9329 118.529C97.8573 120.582 96.7816 122.635 95.706 124.688C95.2757 125.444 94.8455 126.201 93.985 126.741C92.8018 127.605 91.511 127.605 90.2203 127.065C89.4673 126.741 89.2522 126.201 89.5749 125.66C89.8976 125.12 90.543 125.12 91.0808 125.66C91.7262 126.093 92.264 126.309 93.1245 125.985Z" fill="black"/>
<path d="M52.0353 117.449C51.9277 117.773 51.9277 118.205 51.7126 118.638C50.4219 121.015 49.0235 123.5 47.6252 125.877C47.195 126.741 46.6571 127.498 46.2269 128.362C46.0118 128.686 45.7966 129.118 45.2588 129.01C44.721 128.686 44.8286 128.254 45.0437 127.822C45.3664 127.173 45.5815 126.525 45.9042 125.877C47.195 123.284 48.4857 120.69 49.6689 117.989C50.3143 116.909 51.0672 116.801 52.0353 117.449Z" fill="black"/>
<path d="M90.6503 124.256C90.1125 123.716 90.3276 123.283 90.5427 122.743C91.1881 121.339 91.7259 120.042 92.3713 118.745C92.694 117.989 93.0167 117.233 93.3394 116.584C93.7696 115.504 94.1999 115.288 95.3831 115.504C95.9209 115.936 95.7057 116.368 95.4906 116.801C94.9528 117.881 94.3074 118.962 93.7696 119.934C93.1242 121.123 92.4789 122.203 91.8335 123.392C91.4032 124.148 91.2957 124.148 90.6503 124.256Z" fill="black"/>
<path d="M39.0201 124.256C38.3747 124.256 38.1596 123.824 38.2671 123.392C38.3747 122.959 38.5898 122.527 38.6974 122.095C39.5579 120.15 40.4184 118.205 41.3865 116.26C41.8167 115.288 42.6772 115.072 43.5377 115.612C43.7529 116.152 43.4302 116.693 43.215 117.125C42.0318 119.286 40.7411 121.447 39.5579 123.608C39.4503 123.824 39.2352 124.04 39.0201 124.256Z" fill="black"/>
<path d="M51.2821 124.256C50.8519 123.824 50.9594 123.392 51.1746 122.959C52.1426 120.69 53.2183 118.529 54.1863 116.26C54.7241 115.072 56.8754 115.396 56.1225 116.909C54.8317 119.178 53.6485 121.447 52.3578 123.716C52.1426 124.04 51.9275 124.364 51.2821 124.256Z" fill="black"/>
<path d="M100.008 121.555C99.5781 121.555 99.363 121.014 99.6856 120.582C100.331 119.394 100.869 118.205 101.514 117.017C101.944 116.368 102.59 116.368 103.343 116.476C103.988 117.125 103.128 117.989 102.697 118.529C102.052 119.502 101.407 120.69 100.546 121.447C100.331 121.555 100.116 121.555 100.008 121.555Z" fill="black"/>
<path d="M3.95436 121.014C4.16948 121.338 3.95436 121.771 3.8468 122.095C3.73923 122.527 3.41654 122.851 3.09385 123.175C2.6636 123.607 1.91066 124.04 1.26528 123.824C1.26528 123.715 1.15771 123.715 1.15771 123.607C1.26528 122.527 1.80309 121.555 2.44847 120.69C2.55604 120.474 2.87873 120.366 3.09385 120.474C3.41654 120.69 3.8468 120.798 3.95436 121.014Z" fill="black"/>
<path d="M78.926 121.771C79.0335 121.663 79.1411 121.663 79.1411 121.663C80.1092 121.339 80.1092 122.203 79.894 122.959C79.5713 123.716 78.926 124.472 78.173 124.904C77.8503 125.12 76.3444 125.661 76.7747 124.688C76.8823 124.256 77.3125 124.256 77.5276 123.932C78.0655 123.175 78.0655 122.311 78.926 121.771Z" fill="black"/>
</g>
<path d="M113.984 150.103C113.984 158.701 107.008 165.595 98.4921 165.595C89.8947 165.676 82.9194 158.701 82.9194 150.103C82.9194 141.587 89.8947 134.612 98.411 134.612C107.008 134.612 113.984 141.587 113.984 150.103Z" fill="#E292AB"/>
<path d="M96.3835 158.538C96.4646 158.782 96.6268 159.025 96.789 159.187C96.9512 159.268 97.0323 159.349 97.1945 159.43C97.2756 159.43 97.3568 159.43 97.4379 159.43C97.519 159.43 97.519 159.593 97.519 159.674C97.6001 159.998 97.9245 160.323 98.33 160.323C98.5734 160.323 98.7356 160.241 98.8978 160.079C98.9789 159.998 99.06 159.917 99.06 159.836C99.06 159.755 99.1411 159.755 99.1411 159.674C99.1411 159.674 99.1411 159.593 99.2222 159.512C99.5467 159.43 99.8711 159.349 100.114 159.106C100.196 158.944 100.277 158.863 100.358 158.7C100.358 158.619 100.52 158.7 100.601 158.782C100.763 159.106 100.601 159.43 100.358 159.674C100.196 159.917 99.8711 160.16 99.6278 160.241H99.4656C99.3033 160.728 98.8978 161.053 98.4112 161.053C97.9245 161.053 97.4379 160.728 97.3568 160.241H97.2756C96.9512 160.16 96.7079 159.998 96.4646 159.755C96.3024 159.512 96.2212 159.187 96.1401 158.863V158.782C96.2212 158.538 96.3835 158.457 96.3835 158.538Z" fill="#000309"/>
<path d="M98.4111 145.156C95.4101 145.237 92.9768 147.994 94.6801 150.914C95.0856 151.644 95.4912 152.293 95.8967 153.185C96.2211 153.834 96.4645 154.807 96.6267 155.862C96.2211 155.943 96.14 155.456 96.0589 155.132C95.5723 153.266 93.9501 151.969 93.4635 150.103C93.2202 149.211 93.2202 148.238 93.5446 147.345C95.329 142.966 101.655 142.966 103.44 147.345C103.845 148.238 103.845 149.211 103.521 150.103C103.034 151.887 101.412 153.266 100.925 155.132C100.844 155.456 100.763 155.862 100.358 155.862C100.52 154.807 100.763 153.915 101.088 153.185C101.412 152.455 101.818 151.806 102.223 151.076C104.089 148.075 101.655 145.156 98.4111 145.156Z" fill="#000309"/>
<path d="M98.5735 142.803C98.4923 142.803 98.249 142.722 98.249 142.641L98.4112 140.37C98.4112 140.289 98.4923 140.208 98.5735 140.208C98.6546 140.208 98.7357 140.289 98.7357 140.37L98.8979 142.641C98.8979 142.803 98.6546 142.803 98.5735 142.803Z" fill="#000309"/>
<path d="M103.278 144.588C103.197 144.507 103.116 144.345 103.197 144.263L104.981 142.804C105.062 142.722 105.143 142.722 105.143 142.804C105.224 142.885 105.224 142.966 105.143 142.966L103.602 144.669C103.602 144.831 103.359 144.669 103.278 144.588Z" fill="#000309"/>
<path d="M104.981 148.887C104.981 148.806 105.062 148.562 105.143 148.562L107.414 148.725C107.495 148.725 107.576 148.806 107.576 148.887C107.576 148.968 107.495 149.049 107.414 149.049L105.143 149.211C105.062 149.13 104.981 148.968 104.981 148.887Z" fill="#000309"/>
<path d="M93.6258 144.588C93.7069 144.507 93.788 144.345 93.7069 144.263L91.9225 142.804C91.8414 142.722 91.7603 142.722 91.7603 142.804C91.6792 142.885 91.6792 142.966 91.7603 142.966L93.3013 144.669C93.3824 144.831 93.5447 144.669 93.6258 144.588Z" fill="#000309"/>
<path d="M91.9226 148.887C91.9226 148.806 91.8415 148.562 91.7604 148.562L89.4894 148.725C89.4083 148.725 89.3271 148.806 89.3271 148.887C89.3271 148.968 89.4083 149.049 89.4894 149.049L91.7604 149.211C91.8415 149.13 91.9226 148.968 91.9226 148.887Z" fill="#000309"/>
<path d="M100.52 156.429C100.52 156.429 100.439 156.429 100.439 156.348C100.277 156.267 100.114 156.348 99.9522 156.267C99.7089 156.267 99.5467 156.267 99.3033 156.267C98.8167 156.267 98.4112 156.267 97.9245 156.267C97.519 156.267 97.0323 156.267 96.6268 156.267C96.4646 156.267 96.3024 156.267 96.2212 156.348C96.1401 156.429 96.1401 156.429 96.1401 156.51C96.1401 156.592 96.1401 156.673 96.3835 156.673C97.4379 156.673 98.4923 156.673 99.5467 156.673C99.7089 156.673 99.8711 156.673 100.033 156.673C100.196 156.673 100.358 156.673 100.439 156.673C100.52 156.673 100.52 156.592 100.52 156.592V156.51C100.601 156.592 100.601 156.51 100.52 156.429Z" fill="#000309"/>
<path d="M100.52 157.241C100.52 157.241 100.439 157.241 100.439 157.16C100.277 157.079 100.114 157.16 99.9522 157.079C99.7089 157.079 99.5467 157.079 99.3033 157.079C98.8167 157.079 98.4112 157.079 97.9245 157.079C97.519 157.079 97.0323 157.079 96.6268 157.079C96.4646 157.079 96.3024 157.079 96.2212 157.16C96.1401 157.241 96.1401 157.241 96.1401 157.322C96.1401 157.403 96.1401 157.484 96.3835 157.484C97.4379 157.484 98.4923 157.484 99.5467 157.484C99.7089 157.484 99.8711 157.484 100.033 157.484C100.196 157.484 100.358 157.484 100.439 157.484C100.52 157.484 100.52 157.403 100.52 157.403V157.322C100.601 157.403 100.601 157.322 100.52 157.241Z" fill="#000309"/>
<path d="M72.5647 150.103C72.5647 158.701 65.5895 165.595 57.0732 165.595C48.4758 165.676 41.5005 158.701 41.5005 150.103C41.5005 141.587 48.4758 134.612 56.9921 134.612C65.5895 134.612 72.5647 141.587 72.5647 150.103Z" fill="#D7E075"/>
<path d="M51.396 147.264C50.9094 146.453 50.4227 145.642 50.0172 144.831L49.3683 143.533C49.2061 143.371 49.125 143.128 49.125 142.804C49.125 142.56 49.125 142.236 49.3683 141.992C49.6928 141.749 50.0172 141.83 50.2605 141.992C50.5038 142.155 50.666 142.398 50.7472 142.56C50.9905 143.047 51.0716 143.452 51.3149 143.858L52.4504 146.453C53.1804 148.157 53.9104 149.941 54.4781 151.806C54.6403 152.293 54.7214 152.699 54.8836 153.185C54.9648 153.672 55.127 154.077 55.2892 154.483C55.6136 155.294 56.1003 156.024 56.8302 156.592C58.2091 157.727 60.1556 157.971 61.7778 157.16C63.4 156.43 64.3732 154.726 64.4544 152.942C64.5355 152.05 64.2921 151.158 63.8866 150.428C63.8055 150.265 63.6433 150.184 63.6433 150.265C63.4811 150.347 63.2377 150.428 62.9944 150.509L61.6967 150.995L56.3436 152.861C56.2625 152.861 56.1814 152.861 56.1003 152.78C56.1003 152.699 56.1003 152.618 56.1814 152.536L61.4534 150.428L62.7511 149.941C62.9944 149.86 63.1566 149.779 63.4811 149.698C63.6433 149.617 63.8866 149.698 64.0488 149.779C64.211 149.86 64.2921 150.022 64.3733 150.103C65.0221 150.995 65.1843 151.969 65.1843 153.023C65.1843 155.051 63.9677 156.997 62.1022 157.89C61.21 158.295 60.1556 158.538 59.1824 158.376C58.2091 158.295 57.2358 157.808 56.4247 157.241C55.6136 156.592 55.0459 155.781 54.7214 154.807C54.5592 154.321 54.4781 153.834 54.3159 153.429C54.2348 152.942 54.0726 152.536 53.9104 152.05C53.3426 150.265 52.6937 148.481 51.9638 146.778L50.9094 144.101C50.7472 143.696 50.5849 143.209 50.4227 142.804C50.2605 142.398 49.855 142.074 49.6116 142.236C49.5305 142.317 49.4494 142.479 49.4494 142.722C49.4494 142.966 49.5305 143.128 49.6928 143.371L50.3416 144.588C50.7472 145.399 51.2338 146.21 51.6393 147.102C51.6393 147.183 51.6393 147.183 51.5582 147.264C51.5582 147.346 51.4771 147.346 51.396 147.264Z" fill="#000309"/>
<path d="M62.913 151.319C62.8319 151.319 62.8319 151.401 62.8319 151.482C62.9941 151.968 63.1563 152.536 63.1563 153.023C63.1563 153.59 63.0752 154.158 62.8319 154.726C62.5886 155.213 62.2641 155.699 61.8586 156.105C61.4531 156.51 60.8853 156.754 60.3175 156.997C60.3175 156.997 60.2364 157.078 60.3175 157.078C60.3175 157.078 60.3986 157.159 60.3986 157.078C60.9664 156.916 61.6153 156.673 62.1019 156.348C62.5886 155.943 63.0752 155.456 63.3185 154.888C63.643 154.32 63.7241 153.672 63.8052 153.023C63.8052 152.374 63.7241 151.806 63.5619 151.238C63.5619 151.157 63.4807 151.157 63.3996 151.157L62.913 151.319Z" fill="#000309"/>
<path d="M31.1458 150.184C31.1458 158.782 24.1705 165.757 15.5731 165.757C7.05681 165.676 0.081543 158.701 0.081543 150.184C0.081543 141.587 7.05681 134.612 15.6542 134.612C24.2516 134.612 31.1458 141.587 31.1458 150.184Z" fill="#DD8956"/>
<path d="M13.3833 140.532C12.8967 140.776 12.41 140.938 11.9234 141.1L10.3824 141.668L7.38137 142.641L7.54358 142.398C7.62469 144.263 7.62469 146.129 7.62469 147.994C7.62469 148.968 7.62469 149.86 7.62469 150.833L7.54358 153.672H7.13805L7.05694 149.698C7.05694 149.535 7.21915 149.373 7.38137 149.373C7.46248 149.373 7.54358 149.373 7.54358 149.454C8.92242 150.184 10.3012 150.995 11.599 151.806C12.9778 152.617 14.3566 153.347 15.7355 154.077C16.4654 154.402 17.1954 154.726 17.8443 154.807C18.4931 154.807 19.2231 154.483 19.872 154.158C21.2508 153.428 22.5485 152.536 23.7651 151.563C23.8462 151.482 24.0084 151.482 24.0896 151.644C24.0896 151.725 24.1707 151.725 24.1707 151.806L24.0084 155.862C24.0084 155.943 23.9273 155.943 23.9273 155.943C23.8462 155.943 23.8462 155.862 23.8462 155.862L23.684 151.806L24.0896 151.969C22.8729 152.942 21.5752 153.915 20.1153 154.645C19.7908 154.807 19.3853 155.051 18.9798 155.213C18.5742 155.375 18.1687 155.537 17.682 155.456C16.7899 155.375 16.0599 154.97 15.3299 154.726C13.87 154.077 12.4912 153.347 11.1123 152.536C9.73349 151.725 8.35466 150.995 7.05694 149.941L7.54358 149.698L7.46248 153.672C7.46248 153.753 7.38137 153.915 7.21915 153.915C7.13805 153.915 6.97583 153.834 6.97583 153.672V150.833C6.97583 149.941 6.97583 148.968 6.97583 147.994C6.97583 146.129 6.97583 144.263 7.05694 142.398C7.05694 142.317 7.13805 142.154 7.21915 142.154L10.3012 141.262L11.8423 140.776C12.3289 140.613 12.8156 140.451 13.3833 140.37C13.4644 140.37 13.4644 140.37 13.4644 140.451C13.4644 140.451 13.4644 140.532 13.3833 140.532Z" fill="#000309"/>
<path d="M17.763 159.35L17.6008 155.213C17.6008 155.051 17.6819 154.889 17.8442 154.889C18.0064 154.889 18.1686 154.97 18.1686 155.132L18.0064 159.268C18.0064 159.35 17.9253 159.431 17.8442 159.431C17.763 159.512 17.763 159.431 17.763 159.35Z" fill="#000309"/>
<path d="M23.1162 150.184C22.1429 151.077 21.0074 151.888 19.7908 152.536C19.4664 152.699 19.142 152.861 18.8175 152.942C18.6553 152.942 18.4931 153.023 18.2498 153.023C18.1687 153.023 18.0876 153.023 17.9253 153.023C17.7631 153.023 17.682 152.942 17.6009 152.942C16.952 152.699 16.3032 152.455 15.6543 152.212C14.4377 151.644 13.2211 151.077 12.0045 150.428C11.4367 150.103 10.7879 149.779 10.2201 149.454C9.89567 149.292 9.65235 149.13 9.32792 148.968C9.1657 148.887 9.00349 148.806 8.92238 148.724C8.84127 148.643 8.76017 148.643 8.67906 148.562C8.59795 148.481 8.51684 148.481 8.43574 148.238C8.27352 147.508 8.0302 146.697 8.19241 145.886C8.27352 145.48 8.35463 144.993 8.76017 144.669C8.92238 144.507 9.1657 144.426 9.40903 144.345L9.97678 144.182L12.2478 143.534C12.9778 143.29 13.7077 143.047 14.5999 143.047C14.8432 143.047 15.0866 143.047 15.2488 143.29L15.6543 143.696C15.8976 144.02 16.141 144.345 16.3032 144.669C16.3843 144.831 16.4654 145.075 16.4654 145.237C16.4654 145.318 16.4654 145.48 16.4654 145.561L16.3843 145.723C16.3032 145.805 16.3032 145.886 16.2221 145.886C15.8976 146.129 15.4921 146.291 15.1677 146.453C13.7077 147.021 12.1667 147.427 10.7068 147.913C10.6256 147.913 10.6256 147.913 10.6256 147.832C10.6256 147.751 10.6256 147.751 10.7068 147.751C12.1667 147.264 13.7077 146.778 15.0866 146.21C15.411 146.048 15.8165 145.886 16.0599 145.723L16.141 145.642V145.561C16.141 145.48 16.141 145.399 16.141 145.318C16.141 145.156 16.0599 144.993 15.9788 144.831C15.8165 144.507 15.5732 144.182 15.3299 143.939L14.9244 143.534C14.8432 143.452 14.681 143.452 14.5188 143.452C13.7888 143.534 13.0589 143.777 12.3289 143.939L10.139 144.669L9.57124 144.831C9.40903 144.912 9.24681 144.912 9.1657 145.075C8.92238 145.237 8.84127 145.561 8.76017 145.967C8.67906 146.697 8.84127 147.427 9.0846 148.157C9.00349 148.076 9.0846 148.157 9.1657 148.238L9.32792 148.4C9.49014 148.481 9.57124 148.562 9.73346 148.643C10.0579 148.806 10.3012 148.968 10.6256 149.13C11.1934 149.454 11.8423 149.779 12.41 150.022C13.6266 150.59 14.8432 151.158 16.0599 151.725C16.6276 151.969 17.2765 152.293 17.9253 152.455C18.0064 152.455 18.0876 152.536 18.0876 152.536H18.2498C18.412 152.536 18.5742 152.536 18.7364 152.455C19.0608 152.374 19.3853 152.293 19.6286 152.131C20.7641 151.563 21.9807 150.833 23.1162 150.184C23.1162 150.103 23.1162 150.103 23.1162 150.184C23.1162 150.103 23.1162 150.184 23.1162 150.184Z" fill="#000309"/>
<defs>
<clipPath id="clip0">
<rect width="155.321" height="134.737" fill="white" transform="translate(0.942627)"/>
</clipPath>
</defs>
</svg>
